<svg width="31" height="30" viewBox="0 0 31 30" fill="none" xmlns="http://www.w3.org/2000/svg">
<g clip-path="url(#clip0_278_31222)">
<path d="M3.97277 23.0891C3.97277 17.325 0.986938 13.3666 0.986938 10.5891C0.986938 7.81162 2.58361 1.97746 15.3611 1.97746C28.1386 1.97746 30.0136 9.82496 30.0136 12.88C30.0144 27.1858 3.97277 33.2975 3.97277 23.0891Z" fill="#FCD5BA"/>
<path d="M13.5901 20.9341C13.4335 21.0908 13.2218 21.1783 13.001 21.1783C12.7801 21.1783 12.5676 21.0908 12.4118 20.9341L7.41179 15.9341C7.08595 15.6083 7.08679 15.0808 7.41179 14.7558L8.59012 13.5775C8.91595 13.2516 9.44345 13.2516 9.76845 13.5775L13.001 16.8091L21.2334 8.57746C21.5593 8.25163 22.0868 8.25163 22.4118 8.57746L23.5901 9.75579C23.9159 10.0816 23.9159 10.6091 23.5901 10.9341L13.5901 20.9341Z" fill="#FF6633"/>
<path d="M9.28588 15.9339C8.96005 15.6081 8.96088 15.0806 9.28588 14.7556L10.1159 13.9255L9.76755 13.5772C9.44171 13.2514 8.91421 13.2514 8.58921 13.5772L7.41088 14.7556C7.08505 15.0814 7.08505 15.6089 7.41088 15.9339L12.4109 20.9339C12.5675 21.0906 12.7792 21.1781 13 21.1781C13.2209 21.1781 13.4334 21.0906 13.5892 20.9339L13.9375 20.5856L9.28588 15.9339Z" fill="black" fill-opacity="0.1"/>
</g>
<defs>
<clipPath id="clip0_278_31222">
<rect width="30" height="30" fill="white" transform="translate(0.5)"/>
</clipPath>
</defs>
</svg>
